<svg xmlns="http://www.w3.org/2000/svg" width="20" height="20"><g fill="none" fill-rule="evenodd"><circle cx="10" cy="10" r="10" fill="#5C2483"/><circle cx="10" cy="10" r="8" fill="#F35B0C"/><path fill="#FFF" d="M10.836 4.304c.05-.214-.185-.38-.375-.268-1.815 1.044-2.66 3.682-1.055 6.71.11.208-.148.294-.375.287-1.97-.063-1.97-2.461-1.891-3.149.03-.254-.31-.376-.455-.166-.34.507-.685 1.327-.685 2.56.19 2.732 2.555 3.57 3.406 3.678 1.215.15 2.53-.069 3.475-.912 1.04-.941 1.42-2.444.861-3.75-.785-1.99-3.581-2.098-2.906-4.99z"/></g></svg>