<svg xmlns="http://www.w3.org/2000/svg" width="20" height="20"><g fill="none" fill-rule="evenodd"><circle cx="10" cy="10" r="10" fill="#5C2483"/><circle cx="10" cy="10" r="8" fill="#FF4A95"/><path fill="#FFF" fill-rule="nonzero" d="M13.365 7.685a2.166 2.166 0 00-1.6-.685c-.462 0-.885.144-1.257.427a2.547 2.547 0 00-.508.522c-.15-.204-.32-.38-.508-.522A2.034 2.034 0 008.235 7c-.618 0-1.186.243-1.6.685C6.225 8.122 6 8.718 6 9.365c0 .665.252 1.274.793 1.917.485.574 1.18 1.158 1.987 1.833.275.23.587.492.91.77a.475.475 0 00.62.001c.323-.279.635-.54.91-.771.806-.676 1.502-1.259 1.987-1.834.54-.642.793-1.251.793-1.916 0-.647-.225-1.243-.635-1.68z"/></g></svg>